<svg id="logo_epfl_2019" data-name="logo epfl 2019" xmlns="http://www.w3.org/2000/svg" width="182.4" height="53"><defs><style>.cls-1{fill:red}</style></defs><path class="cls-1" d="M0 21.6h11.43V9.8h26.91V0H0v21.6zM0 53h38.34v-9.8H11.43V31.4H0V53z"/><path class="cls-1" d="M11.43 21.6h24.61v9.8H11.43zM86 4.87a16.12 16.12 0 0 0-5.68-3.53A23.76 23.76 0 0 0 71.82 0H48.14v53h11.43V31.4h12.25a23.76 23.76 0 0 0 8.46-1.34A16.12 16.12 0 0 0 86 26.53a13.43 13.43 0 0 0 3.19-5 17.38 17.38 0 0 0 0-11.62A13.52 13.52 0 0 0 86 4.87Zm-8 13.86a5.7 5.7 0 0 1-2.26 1.8 11.33 11.33 0 0 1-3.27.85 32 32 0 0 1-3.86.22h-9.04V9.8h9.05a32 32 0 0 1 3.86.22 11 11 0 0 1 3.27.86A5.59 5.59 0 0 1 78 12.67a5 5 0 0 1 .86 3 5 5 0 0 1-.86 3.06ZM155.47 43.2V0h-11.43v53h38.34v-9.8h-26.91zM97.42 21.6h11.43V9.8h26.91V0H97.42v21.6zM97.42 31.4h11.43V53H97.42z"/><path class="cls-1" d="M108.85 21.6h24.61v9.8h-24.61z"/></svg>